<svg xmlns="http://www.w3.org/2000/svg" width="30" height="30" viewBox="0 0 30 30">
    <path fill="#FFF" fill-rule="evenodd" d="M10.21 24.905L4.656 25.99a.534.534 0 0 1-.21 0 .573.573 0 0 1-.435-.675l1.04-5.473c.006-.033.013-.065.022-.097A10.957 10.957 0 0 1 4 15C4 8.925 8.925 4 15 4s11 4.925 11 11-4.925 11-11 11c-1.717 0-3.342-.393-4.79-1.095zm7.083-12.181h-1.632V11.53c0-.448.266-.553.454-.553h1.152v-1.97L15.68 9c-1.76 0-2.161 1.47-2.161 2.41v1.314H12.5v2.03h1.019V20.5h2.142v-5.746h1.445l.187-2.03z"/>
</svg>
