<svg xmlns="http://www.w3.org/2000/svg" width="180" height="60" viewBox="0 0 180 60">
    <g fill="none" fill-rule="evenodd">
        <g fill-rule="nonzero">
            <path fill="#000" d="M165.519 56.355H12.74c-3.36 0-6.111-2.926-6.111-6.5v-39c0-3.573 2.751-6.5 6.111-6.5h152.778c3.36 0 6.11 2.927 6.11 6.5v39c0 3.574-2.75 6.5-6.11 6.5z"/>
            <path fill="#FFF" stroke="#FFF" stroke-width=".625" d="M64.524 18.432c0 1.008-.305 1.815-.906 2.417-.691.714-1.592 1.073-2.695 1.073-1.055 0-1.955-.365-2.694-1.085-.74-.73-1.11-1.627-1.11-2.7 0-1.073.37-1.969 1.11-2.693.739-.726 1.639-1.091 2.694-1.091.525 0 1.025.107 1.503.306.476.2.864.472 1.145.807l-.638.637c-.49-.572-1.157-.854-2.01-.854-.77 0-1.437.266-2.003.801-.56.538-.84 1.233-.84 2.087 0 .855.28 1.556.84 2.093.566.53 1.233.802 2.003.802.816 0 1.503-.272 2.045-.808.357-.354.56-.843.613-1.468h-2.658v-.872h3.546c.043.189.055.371.055.548zM70.152 15.407H66.82v2.294h3.003v.873H66.82v2.293h3.332v.89h-4.275v-7.238h4.275zM74.123 21.756h-.944v-6.349h-2.043v-.888h5.032v.888h-2.045v6.35zM79.81 21.756V14.52h.94v7.237zM84.925 21.756h-.936v-6.349h-2.05v-.888h5.037v.888h-2.051zM96.503 20.825c-.722.732-1.616 1.097-2.683 1.097-1.073 0-1.968-.365-2.69-1.097-.72-.73-1.078-1.627-1.078-2.688 0-1.06.358-1.957 1.079-2.687.721-.732 1.616-1.097 2.689-1.097 1.06 0 1.955.365 2.677 1.103.726.736 1.085 1.627 1.085 2.681 0 1.061-.359 1.958-1.08 2.688zm-4.675-.607c.543.542 1.204.814 1.992.814.781 0 1.448-.272 1.985-.814.542-.541.817-1.237.817-2.08 0-.844-.275-1.54-.817-2.082-.537-.541-1.204-.813-1.985-.813-.788 0-1.449.272-1.992.813-.542.542-.816 1.238-.816 2.081 0 .844.274 1.54.816 2.081zM98.905 21.756V14.52h1.145l3.559 5.628h.04l-.04-1.39v-4.238h.941v7.237h-.983l-3.726-5.906h-.042l.042 1.397v4.51h-.936z"/>
            <path fill="#FFF" d="M89.82 32.326c-2.868 0-5.21 2.158-5.21 5.135 0 2.953 2.342 5.134 5.21 5.134 2.873 0 5.216-2.18 5.216-5.134 0-2.977-2.343-5.135-5.216-5.135zm0 8.247c-1.574 0-2.928-1.284-2.928-3.112 0-1.852 1.354-3.113 2.928-3.113 1.573 0 2.933 1.261 2.933 3.113 0 1.828-1.36 3.112-2.933 3.112zm-11.37-8.247c-2.873 0-5.21 2.158-5.21 5.135 0 2.953 2.337 5.134 5.21 5.134 2.873 0 5.211-2.18 5.211-5.134 0-2.977-2.338-5.135-5.21-5.135zm0 8.247c-1.574 0-2.932-1.284-2.932-3.112 0-1.852 1.358-3.113 2.933-3.113 1.573 0 2.927 1.261 2.927 3.113 0 1.828-1.354 3.112-2.927 3.112zM64.924 33.9v2.182h5.27c-.154 1.22-.567 2.116-1.198 2.74-.77.755-1.968 1.592-4.072 1.592-3.243 0-5.783-2.588-5.783-5.794 0-3.207 2.54-5.795 5.783-5.795 1.753 0 3.03.677 3.97 1.556l1.556-1.538c-1.317-1.244-3.07-2.199-5.526-2.199-4.448 0-8.185 3.578-8.185 7.976 0 4.397 3.737 7.975 8.185 7.975 2.404 0 4.209-.779 5.628-2.24 1.455-1.438 1.908-3.46 1.908-5.093a7.22 7.22 0 0 0-.119-1.362h-7.417zm55.318 1.691c-.429-1.148-1.752-3.265-4.447-3.265-2.671 0-4.895 2.08-4.895 5.135 0 2.876 2.201 5.134 5.151 5.134 2.386 0 3.762-1.438 4.329-2.276l-1.77-1.166c-.592.854-1.396 1.42-2.559 1.42-1.155 0-1.984-.524-2.515-1.556l6.946-2.842-.24-.584zm-7.081 1.71c-.06-1.98 1.555-2.994 2.712-2.994.906 0 1.675.448 1.932 1.09L113.16 37.3zm-5.646 4.982h2.283V27.192h-2.283v15.09zm-3.739-8.813h-.076c-.513-.601-1.491-1.144-2.73-1.144-2.601 0-4.98 2.257-4.98 5.152 0 2.878 2.379 5.117 4.98 5.117 1.239 0 2.217-.548 2.73-1.167h.076v.737c0 1.963-1.06 3.018-2.772 3.018-1.394 0-2.26-.996-2.617-1.833l-1.986.819c.573 1.361 2.088 3.036 4.603 3.036 2.677 0 4.936-1.557 4.936-5.346v-9.22h-2.164v.83zm-2.611 7.103c-1.574 0-2.89-1.303-2.89-3.095 0-1.81 1.316-3.13 2.89-3.13 1.55 0 2.773 1.32 2.773 3.13 0 1.792-1.223 3.095-2.773 3.095zm29.767-13.381h-5.461v15.09h2.277v-5.717h3.184c2.528 0 5.009-1.81 5.009-4.687 0-2.877-2.487-4.686-5.01-4.686zm.06 7.274h-3.244V29.29h3.243c1.7 0 2.671 1.396 2.671 2.587 0 1.168-.97 2.588-2.67 2.588zm14.075-2.169c-1.645 0-3.356.718-4.06 2.31l2.021.838c.435-.838 1.235-1.11 2.08-1.11 1.182 0 2.38.703 2.398 1.941v.159c-.412-.235-1.294-.584-2.38-.584-2.176 0-4.393 1.185-4.393 3.395 0 2.022 1.782 3.325 3.786 3.325 1.533 0 2.378-.684 2.91-1.48h.077v1.167h2.2V36.47c0-2.676-2.021-4.173-4.639-4.173zm-.275 8.27c-.744 0-1.782-.365-1.782-1.278 0-1.168 1.294-1.617 2.414-1.617 1.003 0 1.473.22 2.082.507-.179 1.398-1.395 2.388-2.714 2.388zm12.926-7.94l-2.618 6.542h-.077l-2.706-6.541h-2.456l4.066 9.142-2.32 5.087h2.38l6.264-14.23h-2.533zm-20.526 9.656h2.283V27.192h-2.283v15.09z"/>
        </g>
        <path fill="#FFF" d="M21.17 16.666L34.82 30.521 21.236 44.496c-.397-.256-.61-.81-.613-1.527L20.5 18.165c-.004-.785.277-1.263.67-1.499zm18.15 9.224l-16.597-9.205a1.65 1.65 0 0 0-.58-.185l13.24 13.44 3.936-4.05zm.738 8.794l-4.106-4.168 4.101-4.22 5.649 3.133c1.391.771.68 1.736 0 2.114l-5.644 3.141zM22.36 44.5c.115-.044.236-.1.362-.171l16.6-9.237-3.936-3.994L22.361 44.5z"/>
    </g>
</svg>
