<svg xmlns="http://www.w3.org/2000/svg" viewBox="0 0 50 50"><style>path {fill:white;}</style><path d="M44 5.9C36.1-2 23.2-2 15.3 5.9c-6.7 6.7-7.7 16.7-3 24.4 0 0 0.3 0.6-0.1 1L1.9 41.7c-2.1 2.1-2.5 4.9-0.7 6.8l0.3 0.3c1.8 1.8 4.7 1.3 6.8-0.7l10.3-10.3c0.5-0.5 1-0.1 1-0.1 7.8 4.7 17.7 3.7 24.4-3C51.9 26.7 51.9 13.8 44 5.9zM40.2 30.8c-5.8 5.8-15.3 5.8-21.2 0 -5.8-5.8-5.8-15.3 0-21.2 5.8-5.8 15.3-5.8 21.2 0C46.1 15.5 46.1 25 40.2 30.8z"/><path d="M35.7 9.1c-6.7-2.8-14.4 0.3-17.2 7 -0.4 1.1 0 2.3 1.1 2.7 0.3 0.1 0.5 0.2 0.8 0.2 0.8 0 1.6-0.5 1.9-1.3 1.9-4.6 7.2-6.7 11.8-4.8 1.1 0.4 2.3 0 2.7-1.1C37.2 10.8 36.7 9.6 35.7 9.1z"/></svg>