<svg xmlns="http://www.w3.org/2000/svg" width="22" height="22" viewBox="0 0 22 22">
    <path fill="#FFE664" fill-rule="nonzero" d="M5.106 13.469c.217.15.289.428.217.705l-.868 5.365c-.145.453.024.957.41 1.234.385.277.867.303 1.253.025l4.508-2.544.024-.025a.596.596 0 0 1 .7 0l4.556 2.57c.193.125.41.201.603.201.217 0 .434-.076.626-.227.386-.277.53-.755.41-1.234l-.868-5.315v-.05a.664.664 0 0 1 .217-.705l3.689-3.678c.362-.302.506-.78.362-1.234a1.097 1.097 0 0 0-.989-.781l-5.038-.831h-.049c-.265 0-.482-.177-.578-.429l-2.266-4.76A1.07 1.07 0 0 0 11.012 1 1.07 1.07 0 0 0 10 1.756l-2.267 4.71-.024.05a.604.604 0 0 1-.578.429l-5.087.83c-.458 0-.844.303-.989.782-.144.453 0 .957.362 1.234l3.664 3.652.025.026z"/>
</svg>
