<svg xmlns="http://www.w3.org/2000/svg" viewBox="0 0 82 106"><style>path {fill:white;} rect {fill:white;}</style><path d="M60.9 0.4H0v106h82v-85L60.9 0.4zM75 99.4H6.9V7.3h50.2v17.9h18V99.4zM62 20.2V7.1l13.2 13.1H62z"/><path d="M15.3 31.8h14.5V17.3H15.3V31.8zM19.3 21.3h6.6v6.6h-6.6V21.3z"/><path d="M15.3 51.4h14.5V36.9H15.3V51.4zM19.3 40.8h6.6v6.6h-6.6V40.8z"/><path d="M15.3 71h14.5V56.5H15.3V71zM19.3 60.4h6.6V67h-6.6V60.4z"/><path d="M15.3 90.5h14.5V76H15.3V90.5zM19.3 80h6.6v6.6h-6.6V80z"/><rect x="35.5" y="86.6" width="30.2" height="3.9"/><rect x="35.5" y="67" width="30.2" height="3.9"/><rect x="35.5" y="47.4" width="30.2" height="3.9"/><rect x="35.5" y="27.9" width="30.2" height="3.9"/></svg>