<svg xmlns="http://www.w3.org/2000/svg" width="30" height="30" viewBox="0 0 30 30">
    <path fill="#FFF" fill-rule="evenodd" d="M16.477 23.376c.018.099.027.2.027.304v2.579a1.741 1.741 0 1 1-3.482 0v-2.58c0-.103.009-.204.026-.303-4.585-.853-8.046-5.065-8.046-10.104 0-.881.709-1.595 1.583-1.595s1.583.714 1.583 1.595c0 3.923 2.97 7.072 6.595 7.072 3.623 0 6.594-3.149 6.594-7.072 0-.881.709-1.595 1.583-1.595s1.583.714 1.583 1.595c0 5.039-3.46 9.251-8.046 10.104zM14.763 2a4.748 4.748 0 0 1 4.748 4.748v7.093a4.748 4.748 0 1 1-9.497 0V6.748A4.748 4.748 0 0 1 14.763 2z"/>
</svg>
