<svg xmlns="http://www.w3.org/2000/svg" width="78" height="83" viewBox="0 0 78 83">
    <path fill="#FF7965" fill-rule="nonzero" d="M37 70c.8 0 1.5.7 1.5 1.5S37.8 73 37 73H17c-.8 0-1.5-.7-1.5-1.5S16.2 70 17 70h20zM13 48c-.8 0-1.5.7-1.5 1.5S12.2 51 13 51s1.5-.7 1.5-1.5S13.8 48 13 48zm0 14.7c-.8 0-1.5.7-1.5 1.5s.7 1.5 1.5 1.5 1.5-.7 1.5-1.5-.7-1.5-1.5-1.5zm0 7.3c-.8 0-1.5.7-1.5 1.5S12.2 73 13 73s1.5-.7 1.5-1.5S13.8 70 13 70zm0-14.7c-.8 0-1.5.7-1.5 1.5s.7 1.5 1.5 1.5 1.5-.7 1.5-1.5-.7-1.5-1.5-1.5zM45.5 73c.8 0 1.5-.7 1.5-1.5s-.7-1.5-1.5-1.5-1.5.7-1.5 1.5.6 1.5 1.5 1.5zM40 71.5c0 .8.7 1.5 1.5 1.5s1.5-.7 1.5-1.5-.7-1.5-1.5-1.5-1.5.7-1.5 1.5zm10.8.7c-.8-.5-1.6-1.2-2.3-1.8-.3.3-.6.7-.6 1.2 0 .8.7 1.5 1.5 1.5.7-.1 1.2-.4 1.4-.9zM17 62.7c-.8 0-1.5.7-1.5 1.5s.7 1.5 1.5 1.5h27.9c-.5-1-1-2-1.3-3H17zm0-4.4h25.6c-.1-.6-.1-1.3-.1-1.9 0-.4 0-.7.1-1.1H17c-.8 0-1.5.7-1.5 1.5s.6 1.5 1.5 1.5zm-1.5-8.8c0 .8.7 1.5 1.5 1.5h26.2c.3-1 .7-2 1.2-3H17c-.9 0-1.5.7-1.5 1.5zm44.2 25.8c-.8 2.7-3.3 4.7-6.2 4.7h-44C5.9 80 3 77.1 3 73.5v-64C3 5.9 5.9 3 9.5 3h44C57.1 3 60 5.9 60 9.5v28c.5 0 1-.1 1.5-.1s1 0 1.5.1v-28C63 4.3 58.7 0 53.5 0h-44C4.3 0 0 4.3 0 9.5v64C0 78.7 4.3 83 9.5 83h44c4.6 0 8.5-3.3 9.3-7.6-.4 0-.9.1-1.3.1-.6-.1-1.2-.1-1.8-.2zM78 56.4c0 9.1-7.4 16.5-16.5 16.5S45 65.5 45 56.4s7.4-16.5 16.5-16.5S78 47.3 78 56.4zm-3 0c0-7.4-6.1-13.5-13.5-13.5S48 49 48 56.4s6.1 13.5 13.5 13.5S75 63.9 75 56.4zm-13.5-1c2.5 0 4.5-2 4.5-4.5s-2-4.5-4.5-4.5-4.5 2-4.5 4.5 2 4.5 4.5 4.5zm2.4.7H59c-2.8 0-5.1 2.3-5.1 5.1v5.1h15.2v-5.1c-.1-2.8-2.4-5.1-5.2-5.1zM31.5 24.8c-4 0-7.3-3.2-7.3-7.2s3.3-7.2 7.3-7.2 7.3 3.2 7.3 7.2-3.3 7.2-7.3 7.2zm0-3c2.4 0 4.3-1.9 4.3-4.2 0-2.3-2-4.1-4.3-4.1s-4.3 1.9-4.3 4.2c0 2.3 1.9 4.1 4.3 4.1zm-.4 4.9h.7c6.1 0 11.1 5 11.1 11.1v2.7h-23v-2.7c.1-6.1 5-11.1 11.2-11.1zM23 37.5h17c-.2-4.3-3.8-7.8-8.1-7.8h-.7c-4.5 0-8.1 3.5-8.2 7.8z"/>
</svg>
