<svg xmlns="http://www.w3.org/2000/svg" width="79" height="84" viewBox="0 0 79 84">
    <path fill="#F3CC00" fill-rule="nonzero" d="M37.8 70.5c.8 0 1.5.7 1.5 1.5s-.7 1.5-1.5 1.5h-20c-.8 0-1.5-.7-1.5-1.5s.7-1.5 1.5-1.5h20zm-24-22c-.8 0-1.5.7-1.5 1.5s.7 1.5 1.5 1.5 1.5-.7 1.5-1.5-.7-1.5-1.5-1.5zm0 14.7c-.8 0-1.5.7-1.5 1.5s.7 1.5 1.5 1.5 1.5-.7 1.5-1.5-.7-1.5-1.5-1.5zm0 7.3c-.8 0-1.5.7-1.5 1.5s.7 1.5 1.5 1.5 1.5-.7 1.5-1.5-.7-1.5-1.5-1.5zm0-14.7c-.8 0-1.5.7-1.5 1.5s.7 1.5 1.5 1.5 1.5-.7 1.5-1.5-.7-1.5-1.5-1.5zm32.5 17.7c.8 0 1.5-.7 1.5-1.5s-.7-1.5-1.5-1.5-1.5.7-1.5 1.5.6 1.5 1.5 1.5zM40.8 72c0 .8.7 1.5 1.5 1.5s1.5-.7 1.5-1.5-.7-1.5-1.5-1.5-1.5.7-1.5 1.5zm10.8.7c-.8-.5-1.6-1.2-2.3-1.8-.3.3-.6.7-.6 1.2 0 .8.7 1.5 1.5 1.5.7-.1 1.2-.4 1.4-.9zm-33.8-9.5c-.8 0-1.5.7-1.5 1.5s.7 1.5 1.5 1.5h27.9c-.5-1-1-2-1.3-3H17.8zm0-4.4h25.6c-.1-.6-.1-1.3-.1-1.9 0-.4 0-.7.1-1.1H17.8c-.8 0-1.5.7-1.5 1.5s.6 1.5 1.5 1.5zM16.3 50c0 .8.7 1.5 1.5 1.5H44c.3-1 .7-2 1.2-3H17.8c-.9 0-1.5.7-1.5 1.5zm44.2 25.8c-.8 2.7-3.3 4.7-6.2 4.7h-44c-3.6 0-6.5-2.9-6.5-6.5V10c0-3.6 2.9-6.5 6.5-6.5h44c3.6 0 6.5 2.9 6.5 6.5v28c.5 0 1-.1 1.5-.1s1 0 1.5.1V10c0-5.2-4.3-9.5-9.5-9.5h-44C5.1.5.8 4.8.8 10v64c0 5.2 4.3 9.5 9.5 9.5h44c4.6 0 8.5-3.3 9.3-7.6-.4 0-.9.1-1.3.1-.6-.1-1.2-.1-1.8-.2zm18.3-18.9c0 9.1-7.4 16.5-16.5 16.5S45.8 66 45.8 56.9s7.4-16.5 16.5-16.5 16.5 7.4 16.5 16.5zm-3 0c0-7.4-6.1-13.5-13.5-13.5s-13.5 6.1-13.5 13.5 6.1 13.5 13.5 13.5 13.5-6 13.5-13.5zm-8.5-5.5l-7.8 7.8-2.3-2.2c-.6-.6-1.5-.6-2.1 0-.6.6-.6 1.5 0 2.1l3.3 3.3c.3.3.7.4 1.1.4.4 0 .8-.2 1.1-.4l8.8-8.8c.6-.6.6-1.5 0-2.1-.6-.6-1.5-.6-2.1-.1zm-35-26.1c-4 0-7.3-3.2-7.3-7.2s3.3-7.2 7.3-7.2 7.3 3.2 7.3 7.2-3.3 7.2-7.3 7.2zm0-3c2.4 0 4.3-1.9 4.3-4.2 0-2.3-2-4.1-4.3-4.1S28 15.9 28 18.2c0 2.3 1.9 4.1 4.3 4.1zm-.4 4.9h.7c6.1 0 11.1 5 11.1 11.1V41h-23v-2.7c.1-6.1 5-11.1 11.2-11.1zM23.8 38h17c-.2-4.3-3.8-7.8-8.1-7.8H32c-4.5 0-8.1 3.5-8.2 7.8z"/>
</svg>
